<?xml version="1.0" encoding="UTF-8" standalone="no"?>
<!-- Created with Inkscape (http://www.inkscape.org/) -->

<svg
   width="153.04451mm"
   height="186.79942mm"
   viewBox="0 0 153.04451 186.79942"
   version="1.1"
   id="svg5"
   xml:space="preserve"
   sodipodi:docname="bitmap.svg"
   inkscape:version="1.2.2 (b0a8486541, 2022-12-01)"
   xmlns:inkscape="http://www.inkscape.org/namespaces/inkscape"
   xmlns:sodipodi="http://sodipodi.sourceforge.net/DTD/sodipodi-0.dtd"
   xmlns="http://www.w3.org/2000/svg"
   xmlns:svg="http://www.w3.org/2000/svg"><sodipodi:namedview
     id="namedview12"
     pagecolor="#ffffff"
     bordercolor="#999999"
     borderopacity="1"
     inkscape:showpageshadow="0"
     inkscape:pageopacity="0"
     inkscape:pagecheckerboard="0"
     inkscape:deskcolor="#d1d1d1"
     inkscape:document-units="mm"
     showgrid="false"
     inkscape:zoom="0.60448039"
     inkscape:cx="645.18222"
     inkscape:cy="366.43041"
     inkscape:window-width="1920"
     inkscape:window-height="1008"
     inkscape:window-x="0"
     inkscape:window-y="0"
     inkscape:window-maximized="1"
     inkscape:current-layer="layer1" /><defs
     id="defs2" /><g
     id="layer1"
     transform="translate(48.918613,34.236937)"><path
       style="fill:#bcddf5;stroke-width:0.264583"
       d="m -21.553848,114.59881 c -0.140759,-0.32742 -2.628699,-8.51297 -5.528755,-18.190106 -2.900055,-9.677135 -5.887886,-19.618854 -6.639625,-22.092708 -2.28219,-7.510341 -7.154175,-23.654063 -7.944884,-26.326043 -1.436571,-4.854471 -5.252008,-17.631727 -6.31244,-21.13928 -0.589378,-1.949468 -1.00774,-3.647807 -0.929693,-3.774088 0.07804,-0.12628 3.675933,-2.885342 7.995306,-6.131245 4.319373,-3.245903 12.734967,-9.5748715 18.701321,-14.0643745 9.581443,-7.2097478 46.459617,-34.8723645 48.766458,-36.5801155 0.482285,-0.357033 1.088337,-0.593853 1.346787,-0.526267 0.258448,0.06759 6.531353,4.68707 13.939786,10.265521 7.408436,5.57845 19.958787,15.0246701 27.88967,20.9916012 7.93089,5.9669311 16.15915,12.164256 18.28504,13.7718348 2.12589,1.60758 6.6205,4.997911 9.98802,7.534072 3.417677,2.573927 6.122767,4.794255 6.122767,5.025533 0,0.409564 -1.47145,5.510316 -3.44061,11.926808 -0.55824,1.819011 -2.464527,8.188855 -4.236197,14.155209 -1.77168,5.966354 -3.91418,13.169636 -4.76112,16.007292 -0.84694,2.837656 -2.09353,7.064375 -2.7702,9.392708 -0.67668,2.328334 -1.86699,6.316928 -2.64515,8.863542 -0.77816,2.546615 -1.95329,6.416146 -2.61139,8.598959 -4.71683,15.644817 -6.58594,21.774497 -6.79721,22.291147 l -0.24344,0.59531 h -48.959255 -48.95926 z"
       id="path213" /><path
       style="fill:#000080;stroke-width:0.264583"
       d="m -8.6386363,99.104134 c -2.0431097,-0.747561 -3.8335077,-3.351363 -3.8335077,-5.575123 0,-2.155338 1.559123,-4.547915 3.5541577,-5.454086 2.236073,-1.015656 5.221361,-0.442809 6.877288,1.319681 0.91504,0.973926 1.258406,1.015135 2.296895,0.275666 0.949576,-0.676158 1.642517,-1.991484 2.216883,-4.208031 0.613272,-2.36669 1.518735,-4.022352 2.799178,-5.118365 1.629328,-1.394642 3.070563,-1.814785 6.8588973,-1.999466 l 3.307291,-0.161232 0.07311,-4.048086 0.07311,-4.048088 -6.4684573,0.07934 c -7.5049,0.09205 -7.301222,0.02061 -8.394684,2.944493 -0.758859,2.029177 -2.295585,3.629353 -4.086351,4.255079 -0.792663,0.276971 -2.534198,0.516639 -4.435642,0.610423 -2.9287487,0.144457 -3.1450987,0.19259 -3.3557127,0.746546 -0.395507,1.040262 -1.944005,2.575179 -3.125004,3.097599 -1.529765,0.676695 -3.91165,0.662064 -5.272892,-0.03239 -1.247502,-0.636429 -2.88754,-2.397929 -3.165376,-3.399809 -0.111996,-0.403849 -0.20038,-1.404821 -0.196409,-2.224376 0.0094,-1.93099 1.062546,-3.725306 2.826846,-4.816088 2.911332,-1.79994 6.459796,-0.992193 8.392739,1.910461 l 0.940977,1.413041 2.6962517,-0.132998 c 3.877225,-0.191251 4.403519,-0.502528 5.902706,-3.491164 1.982639,-3.952396 3.144895,-4.373358 12.074654,-4.373358 H 15.570741 V 64.99227 63.310739 l -1.708809,-0.15957 C 11.180623,62.900783 9.6447297,61.896838 8.3731477,59.563395 L 7.9224327,58.736302 H -4.0084283 -15.939289 l -0.450715,0.827093 c -1.373167,2.51986 -2.998248,3.519033 -5.742382,3.530674 -1.542105,0.0065 -2.054463,-0.111119 -3.061276,-0.703016 -2.310056,-1.358064 -3.448979,-4.013774 -2.885459,-6.728235 0.779407,-3.754388 5.327936,-5.959177 8.698304,-4.216289 1.052748,0.544396 2.539,2.095648 2.943524,3.072254 l 0.324445,0.783283 11.9391897,-0.06882 11.939187,-0.06882 0.07329,-3.750215 c 0.06961,-3.562154 0.04651,-3.758715 -0.460652,-3.919683 -0.293667,-0.09321 -0.627603,-0.11158 -0.74208,-0.04083 -0.114475,0.07075 -2.109838,0.03966 -4.434139,-0.06909 -4.598585,-0.215157 -5.300146,-0.413943 -6.96406,-1.973242 -0.487288,-0.456652 -1.34471,-1.816679 -1.905384,-3.022282 -0.929013,-1.997644 -1.123973,-2.238264 -2.198724,-2.713678 -0.772509,-0.341717 -1.8848777,-0.543901 -3.2247017,-0.586118 l -2.045382,-0.06445 -0.516695,0.926041 c -1.265536,2.268144 -3.074913,3.439584 -5.312695,3.439584 -2.717501,0 -4.48197,-1.018262 -5.578919,-3.219551 -2.084356,-4.182758 0.746797,-8.926378 5.338958,-8.945473 2.412992,-0.01003 4.169523,1.059583 5.530352,3.367628 l 0.662993,1.124479 h 2.193435 c 4.1880547,0 6.6468177,1.462484 8.2183547,4.88832 0.468916,1.022204 1.134515,2.117958 1.479106,2.435008 0.962437,0.885508 2.670418,1.173911 6.447363,1.088673 l 3.439583,-0.07763 V 39.818584 35.58525 l -0.661458,-0.06646 c -2.424464,-0.24361 -3.466351,-0.658434 -4.865505,-1.937181 -1.637617,-1.49669 -2.079243,-2.435831 -2.682933,-5.705388 -0.521903,-2.826592 -1.294624,-4.262086 -2.727883,-5.067623 l -1.067795,-0.600133 -0.91019,0.91019 c -1.964777,1.964778 -4.594286,2.522003 -7.0057717,1.484609 -4.656077,-2.002988 -5.080997,-8.545825 -0.729716,-11.236016 1.125808,-0.696034 1.542791,-0.800745 3.1887527,-0.800745 1.642795,0 2.063311,0.105124 3.175151,0.79375 1.305383,0.808498 2.577851,2.746377 2.909078,4.430323 0.110638,0.562476 0.48828,0.900536 1.675381,1.499786 2.840963,1.434113 4.303056,3.647644 4.84066,7.328511 0.35546,2.433759 1.066768,4.128813 1.985108,4.730533 0.358537,0.234921 1.212093,0.490109 1.896795,0.567082 1.236239,0.138977 1.25136,0.131101 2.170951,-1.130583 0.509323,-0.698794 1.4022923,-1.53996 1.9843753,-1.86926 0.972802,-0.550342 1.391386,-0.599081 5.179402,-0.603081 4.827206,-0.0051 3.792505,-0.646388 8.317459,5.155023 1.702541,2.182812 3.231222,3.96875 3.39707,3.96875 0.165852,0 1.70928,-2.053829 3.429844,-4.564063 l 3.128301,-4.564063 4.545835,0.0013 c 5.243771,0.0016 5.705771,0.154427 7.46933,2.471367 0.97513,1.28111 0.97682,1.281957 2.201193,1.103861 2.348137,-0.341559 3.048489,-1.274514 3.623569,-4.827035 0.198906,-1.22873 0.651658,-2.867528 1.006118,-3.64177 0.758954,-1.657771 2.478272,-3.416327 4.109659,-4.203443 1.062368,-0.512575 1.196102,-0.688721 1.531202,-2.016835 0.474694,-1.881378 1.480317,-3.128922 3.252456,-4.034895 4.414814,-2.256992 9.441484,1.280652 8.925364,6.281438 -0.17705,1.715426 -0.64503,2.656226 -1.95692,3.934082 -2.41873,2.355988 -6.514834,2.207649 -8.918693,-0.322985 -0.72236,-0.760457 -0.80551,-0.78449 -1.489837,-0.430609 -1.668589,0.862859 -2.302787,2.128864 -2.898364,5.7858 -0.685753,4.210624 -3.016343,6.584857 -6.885281,7.014218 l -1.455209,0.161493 v 4.233334 4.233333 l 3.514847,0.07389 c 1.933165,0.04064 3.981579,-0.05179 4.552032,-0.205399 1.507519,-0.405932 2.525672,-1.389272 3.084486,-2.97901 0.334256,-0.95091 0.945919,-1.84852 1.944203,-2.853095 1.82853,-1.840024 3.315128,-2.37073 6.640896,-2.37073 h 2.34549 l 0.51136,-0.992188 c 1.62996,-3.162612 5.2758,-4.399028 8.3922,-2.846056 1.46543,0.730252 2.32043,1.719815 2.89637,3.352215 1.42381,4.035507 -1.42406,8.163452 -5.62707,8.156361 -2.68859,-0.0045 -5.01318,-1.507866 -5.88749,-3.807489 l -0.29086,-0.765022 -2.07627,0.16011 c -3.592122,0.277005 -4.696242,0.991031 -5.711715,3.693716 -0.623472,1.659374 -2.227279,3.450323 -3.634674,4.058793 -0.906748,0.392022 -2.065679,0.515122 -5.891305,0.625771 l -4.7625,0.137747 -0.07319,3.897231 -0.07319,3.897231 11.847144,0.07152 c 10.26351,0.06196 11.89267,0.01847 12.18768,-0.325355 0.18729,-0.218282 0.72863,-0.932657 1.20298,-1.5875 2.68262,-3.703405 8.19012,-3.371287 10.29641,0.620905 0.43512,0.824704 0.58174,1.566175 0.58764,2.971718 0.007,1.630482 -0.0958,2.040433 -0.79289,3.168005 -2.59736,4.201131 -8.56712,3.863618 -10.81994,-0.61173 l -0.4342,-0.862558 -12.094483,0.06881 -12.094485,0.06881 -0.452279,0.960636 c -0.959828,2.03867 -2.946235,3.15372 -6.166368,3.46143 -0.785323,0.07505 -0.79375,0.09271 -0.79375,1.663351 v 1.5875 l 6.482292,0.143245 c 5.388128,0.119068 6.66093,0.221734 7.540624,0.608232 1.678377,0.737405 2.950914,2.172071 3.72618,4.20092 0.930235,2.434399 1.73909,2.868231 5.697463,3.05585 l 2.827105,0.134001 0.657656,-1.028417 c 1.986555,-3.106497 5.113095,-4.085291 8.144675,-2.549769 3.24289,1.642555 4.35521,5.609715 2.39232,8.532374 -2.56056,3.812593 -8.32684,3.574439 -10.545044,-0.435523 L 66.109983,78.129683 63.131505,77.973581 C 57.784845,77.693358 56.124471,76.766184 54.450704,73.1261 53.024028,70.023389 53.210552,70.08705 45.802896,70.174527 l -6.022787,0.07112 v 3.96875 3.96875 l 3.495641,0.147251 c 3.326132,0.140107 3.58169,0.191429 5.27015,1.058333 2.154645,1.106255 3.269731,2.574121 4.075676,5.3651 0.808969,2.801448 1.075364,3.378676 2.064681,4.473728 1.04022,1.151401 1.746703,1.253887 2.453092,0.355857 1.346999,-1.712434 4.871141,-2.509764 7.05707,-1.59665 5.619165,2.347259 4.331775,10.686807 -1.761133,11.408424 -2.927527,0.346723 -5.373936,-1.162995 -6.504654,-4.014126 -0.54851,-1.383083 -0.782854,-1.662499 -1.819928,-2.169946 -2.471576,-1.20936 -3.730588,-3.04324 -4.542004,-6.615891 -0.467138,-2.056804 -1.153922,-3.279997 -2.332575,-4.154418 -0.664903,-0.493279 -1.111062,-0.553496 -4.101041,-0.553496 h -3.354975 l -0.132291,6.085417 c -0.126326,5.811026 -0.160354,6.130552 -0.754645,7.086439 -0.342294,0.550564 -1.054542,1.294704 -1.582772,1.653646 l -0.960421,0.652624 h -8.454001 c -8.042375,0 -8.509783,-0.027 -9.599612,-0.55458 -0.795563,-0.385125 -1.366788,-0.930825 -1.869472,-1.785938 -0.722884,-1.229688 -0.723985,-1.239514 -0.811668,-7.250628 l -0.0878,-6.019271 h -2.871538 c -4.7927723,0 -5.6308133,0.649335 -7.0185523,5.438127 -0.992844,3.426097 -2.016326,4.796147 -4.518189,6.048126 -1.200481,0.600742 -1.373219,0.793644 -1.517251,1.694368 -0.384021,2.401541 -2.69581,4.266314 -5.514408,4.44812 -1.059765,0.06836 -2.05363,-0.0336 -2.726126,-0.27966 z M 24.486793,23.802607 c -1.944457,-0.489651 -4.031067,-1.685425 -5.49421,-3.148568 -5.655833,-5.655834 -3.78724,-15.1237419 3.674383,-18.6175834 2.420196,-1.13323693 5.696312,-1.31497659 8.235327,-0.4568455 3.479657,1.1760491 6.172866,3.738642 7.413167,7.0536437 2.103025,5.6208402 -0.415078,11.6689002 -5.953389,14.2990332 -1.776428,0.843621 -2.292612,0.96443 -4.439795,1.039106 -1.336316,0.04647 -2.882281,-0.02948 -3.435483,-0.168786 z"
       id="path211" /><g
       aria-label="Central Coast Tech &amp; Career Academy"
       id="text388"
       style="font-weight:bold;font-size:12.7px;-inkscape-font-specification:'sans-serif Bold';fill:#000080;stroke-width:0.264583"
       transform="translate(-38.046051,-11.275068)"><text
         xml:space="preserve"
         style="font-style:normal;font-variant:normal;font-weight:bold;font-stretch:normal;font-size:14.1111px;font-family:sans-serif;-inkscape-font-specification:'sans-serif, Bold';font-variant-ligatures:normal;font-variant-caps:normal;font-variant-numeric:normal;font-variant-east-asian:normal;white-space:pre;inline-size:284.639;display:inline;fill:#000080;stroke-width:0.0700042"
         x="-6.7406917"
         y="142.81203"
         id="text558"><tspan
           x="-6.7406917"
           y="142.81203"
           id="tspan341">Cental Coast Tech &amp; 
</tspan><tspan
           x="-6.7406917"
           y="160.4509"
           id="tspan343">Career Academy Inc.</tspan></text><text
         xml:space="preserve"
         style="font-style:normal;font-variant:normal;font-weight:bold;font-stretch:normal;font-size:14.1111px;font-family:sans-serif;-inkscape-font-specification:'sans-serif, Bold';font-variant-ligatures:normal;font-variant-caps:normal;font-variant-numeric:normal;font-variant-east-asian:normal;fill:#000080;stroke-width:0.0700042"
         x="93.211227"
         y="66.629166"
         id="text1443"><tspan
           id="tspan1441"
           style="fill:#000080;stroke-width:0.0700042"
           x="93.211227"
           y="66.629166" /></text></g></g></svg>
